<svg width="38" height="24" viewBox="0 0 38 24" fill="none" xmlns="http://www.w3.org/2000/svg">
<path d="M0 4C0 1.79086 1.79086 0 4 0H33.8947C36.1039 0 37.8947 1.79086 37.8947 4V20C37.8947 22.2091 36.1039 24 33.8947 24H4C1.79086 24 0 22.2091 0 20V4Z" fill="white"/>
<path d="M8.34666 8.93877C8.23239 8.75379 8.08337 8.59269 7.90785 8.46437C7.73057 8.34316 7.53633 8.24884 7.33145 8.18447C7.10884 8.11164 6.879 8.06313 6.64595 8.03978C6.3732 8.01319 6.09927 8.00053 5.82524 8.00183H3.45325C3.39826 7.99664 3.3428 8.00253 3.29013 8.01916C3.23747 8.0358 3.18868 8.06283 3.14665 8.09866C3.10463 8.13449 3.07022 8.1784 3.04547 8.22777C3.02072 8.27714 3.00613 8.33098 3.00257 8.38609C3.00257 8.38609 3.00257 8.40032 3.00257 8.40744V12.2596C3.33143 12.9652 3.87754 13.5471 4.56097 13.9199V13.1467C4.55576 13.087 4.56237 13.0269 4.58043 12.9698C4.59848 12.9127 4.62762 12.8597 4.66618 12.8139C4.70473 12.7681 4.75195 12.7303 4.80513 12.7027C4.8583 12.6752 4.91639 12.6584 4.97606 12.6533H5.68766C6.6586 12.6533 7.39945 12.4501 7.91022 12.0437C8.42099 11.6373 8.68032 11.0348 8.68823 10.2362C8.68906 10.0061 8.66198 9.77673 8.60758 9.55311C8.55336 9.33592 8.46531 9.1286 8.34666 8.93877ZM6.95668 10.9194C6.87395 11.0617 6.75099 11.1764 6.60325 11.2491C6.44317 11.3255 6.27021 11.3714 6.09327 11.3843C5.89892 11.4085 5.70324 11.4204 5.50739 11.4199H4.82426C4.66059 11.4199 4.55859 11.287 4.55859 11.0925V9.5033C4.55623 9.46843 4.56161 9.43347 4.57434 9.40092C4.58706 9.36837 4.60682 9.33903 4.6322 9.31501C4.65759 9.29099 4.68797 9.27287 4.72117 9.26195C4.75437 9.25104 4.78957 9.24759 4.82426 9.25187H5.50739C5.72878 9.25187 5.93751 9.25819 6.1336 9.27084C6.30835 9.27923 6.47987 9.3211 6.63883 9.39419C6.78508 9.4593 6.90709 9.56886 6.98751 9.70729C7.07832 9.8929 7.11998 10.0987 7.10848 10.305C7.1131 10.5189 7.0607 10.7301 6.95668 10.917V10.9194ZM4.56334 14.1524C3.97839 13.9414 3.44598 13.6064 3.00257 13.1704V15.0324C2.9976 15.0679 2.99986 15.104 3.0092 15.1386C3.01854 15.1731 3.03478 15.2055 3.05694 15.2336C3.0791 15.2617 3.10671 15.2851 3.13813 15.3023C3.16955 15.3195 3.20412 15.3302 3.23977 15.3337H4.31191C4.59655 15.3337 4.56334 15.03 4.56334 15.03V14.1524ZM19.2981 10.0299H18.3731C18.2848 10.0241 18.1973 10.0498 18.1261 10.1023C18.0549 10.1548 18.0046 10.2308 17.9841 10.3169L16.9096 13.2771C16.9096 13.2771 15.9608 10.5802 15.8896 10.3714C15.8696 10.2751 15.8173 10.1885 15.7414 10.126C15.6655 10.0634 15.5705 10.0287 15.4721 10.0275H14.6206C14.317 10.0275 14.317 10.2647 14.3573 10.3572C14.3976 10.4497 15.5623 13.6424 16.0177 14.864C16.0894 15.0144 16.1397 15.1741 16.1671 15.3384C16.1376 15.5006 16.0763 15.6554 15.9868 15.7938C15.9522 15.8525 15.9125 15.9081 15.8682 15.9599C16.7459 15.6989 17.7658 14.7478 18.2782 13.7207C18.7953 12.2975 19.476 10.3999 19.5069 10.3027C19.5401 10.1532 19.5401 10.0299 19.2981 10.0299ZM15.1756 16.2492C15.0963 16.2471 15.0171 16.2408 14.9384 16.2303C14.8412 16.216 14.6562 16.2303 14.6562 16.3963V17.1079C14.6562 17.3807 14.789 17.3997 14.8578 17.4186C15.0775 17.4668 15.3018 17.4907 15.5267 17.4898C15.7924 17.4968 16.0562 17.4424 16.2976 17.3309C16.5184 17.2193 16.7144 17.0644 16.874 16.8754C17.0549 16.6686 17.208 16.4389 17.3294 16.1923C17.4606 15.9298 17.5856 15.6396 17.7042 15.3218L17.8417 14.9446C17.5666 15.2174 16.3521 16.3631 15.1756 16.2492ZM13.7762 10.8814C13.7258 10.7616 13.6569 10.6503 13.5722 10.5517C13.4864 10.4604 13.3892 10.3806 13.2828 10.3145C13.1679 10.2363 13.0455 10.1695 12.9175 10.1153C12.7872 10.0648 12.6531 10.0243 12.5166 9.9943C12.3604 9.95974 12.2018 9.93675 12.0422 9.92551C11.8714 9.90812 11.6801 9.89942 11.4682 9.89942C10.0545 9.89942 9.2496 10.3454 9.05352 11.2372C9.04515 11.2705 9.04409 11.3051 9.05041 11.3388C9.05673 11.3725 9.07027 11.4044 9.09011 11.4324C9.10995 11.4603 9.13561 11.4837 9.16533 11.5008C9.19504 11.5178 9.22811 11.5283 9.26225 11.5314H10.1328C10.37 11.5314 10.37 11.4578 10.4601 11.2538C10.4996 11.1428 10.5705 11.0455 10.6641 10.9739C10.8865 10.8304 11.1496 10.7629 11.4136 10.7818C11.6599 10.7566 11.9073 10.8178 12.1134 10.955C12.2706 11.1017 12.3635 11.3046 12.3719 11.5195C12.3719 11.8136 12.2818 12.0081 11.9165 12.0081C11.0507 11.9773 10.1209 12.0745 9.5967 12.3758C9.33865 12.5333 9.12683 12.7562 8.9827 13.022C8.83857 13.2878 8.76726 13.5869 8.77599 13.8891C8.77003 14.1245 8.81789 14.3582 8.91594 14.5722C9.0083 14.7583 9.14221 14.9206 9.30732 15.0466C9.48064 15.188 9.68072 15.2929 9.89557 15.355C10.1383 15.4207 10.3889 15.4526 10.6404 15.4499C10.9787 15.4551 11.3156 15.4071 11.639 15.3076C11.9248 15.1905 12.1949 15.0383 12.4431 14.8545V15.0206C12.4431 15.1842 12.4929 15.3313 12.6803 15.3313H13.6884C13.8924 15.3313 13.9398 15.1866 13.9398 15.0063V11.9014C13.941 11.7077 13.9276 11.5142 13.8995 11.3226C13.8771 11.1709 13.8357 11.0227 13.7762 10.8814ZM12.398 13.9318C12.398 13.9318 12.1371 14.4774 11.212 14.4774C10.9902 14.4876 10.7709 14.4269 10.5858 14.3042C10.5044 14.241 10.44 14.1584 10.3986 14.0639C10.3572 13.9695 10.34 13.8662 10.3486 13.7634C10.3384 13.6254 10.3704 13.4875 10.4403 13.3681C10.5102 13.2486 10.6147 13.1532 10.74 13.0945C11.1142 12.9507 11.5135 12.8838 11.9141 12.8976C11.9754 12.8884 12.038 12.8925 12.0976 12.9097C12.1571 12.927 12.2123 12.9569 12.2591 12.9975C12.306 13.0381 12.3436 13.0883 12.3692 13.1448C12.3948 13.2012 12.4079 13.2626 12.4075 13.3246L12.398 13.9318Z" fill="#333333"/>
<path d="M35.4514 11.9346C35.5683 12.1225 35.6302 12.3395 35.6302 12.5608C35.6302 12.7821 35.5683 12.999 35.4514 13.187C35.2142 13.5475 33.9215 14.928 33.4945 15.3716C33.1245 15.7559 32.624 16.1449 32.1283 16.1449H21.8599C20.4699 16.1449 20.3869 15.6705 20.3869 14.6126V10.2979C20.3869 9.21391 20.7071 8.89844 21.6583 8.89844H32.152C32.643 8.89844 33.0818 9.14987 33.5752 9.65747C34.0069 10.0915 35.2806 11.6784 35.4514 11.9346Z" fill="#33CCCC"/>
<path d="M22.7185 10.5659V10.5398C22.7185 10.3999 22.7185 10.2646 22.4813 10.2646H21.6203C21.4186 10.2646 21.4091 10.3738 21.4091 10.5445V11.6831C21.7488 11.2103 22.1981 10.8269 22.7185 10.5659Z" fill="white"/>
<path d="M28.4848 14.6838V14.6221V11.8753C28.4848 10.7257 27.9772 10.1509 26.962 10.1509C26.6794 10.1542 26.4034 10.2364 26.165 10.3881C25.9023 10.5519 25.6676 10.757 25.47 10.9953C25.3806 10.7377 25.2067 10.5179 24.9766 10.3715C24.715 10.2273 24.4188 10.1575 24.1204 10.1699C23.6813 10.1715 23.2552 10.3183 22.9083 10.5873C22.8324 10.6632 21.4068 11.7733 21.4068 12.9309V14.6885C21.4068 14.7431 21.3783 14.9565 21.6179 14.9565H22.5121C22.7897 14.9565 22.7636 14.7739 22.7636 14.698V11.8516C22.913 11.65 23.219 11.1685 23.7242 11.1685C23.805 11.1611 23.8864 11.1755 23.9598 11.2101C24.0332 11.2447 24.096 11.2983 24.1417 11.3653C24.2431 11.5679 24.2874 11.7942 24.2698 12.02V14.2378V14.6932C24.2698 14.7478 24.2413 14.9613 24.4809 14.9613H25.3657C25.6432 14.9613 25.6171 14.7786 25.6171 14.7027V14.6411V11.8421C25.7784 11.6405 26.0915 11.159 26.5777 11.159C26.6595 11.1523 26.7416 11.1669 26.816 11.2014C26.8904 11.2359 26.9546 11.2891 27.0023 11.3559C27.1054 11.5579 27.1505 11.7844 27.1328 12.0105V14.2283V14.6838C27.1328 14.7383 27.1043 14.9518 27.3439 14.9518H28.2381C28.518 14.9376 28.4848 14.7573 28.4848 14.6838Z" fill="white"/>
<path d="M33.4163 13.5665C33.2643 13.9751 32.9859 14.3245 32.6215 14.5639C32.2572 14.8032 31.8259 14.92 31.3906 14.8972C30.0243 14.8972 29.1135 13.9674 29.1135 12.5727C29.1135 11.1779 30.0623 10.2007 31.3432 10.2007C32.624 10.2007 33.4779 11.0878 33.5325 12.5181C33.5325 12.7008 33.4874 12.8621 33.2573 12.8621H30.3588C30.3778 13.6282 30.7454 14.0481 31.4001 14.0481C31.5739 14.0524 31.7453 14.0069 31.8941 13.917C32.0429 13.827 32.1628 13.6964 32.2398 13.5404C32.2701 13.4963 32.3108 13.4604 32.3585 13.436C32.4061 13.4116 32.459 13.3994 32.5125 13.4005H33.2597C33.2821 13.3994 33.3045 13.4034 33.3252 13.4122C33.3458 13.421 33.3643 13.4343 33.3791 13.4511C33.3939 13.468 33.4047 13.488 33.4107 13.5096C33.4168 13.5312 33.4178 13.5539 33.4139 13.576L33.4163 13.5665ZM31.3479 11.0854C30.8047 11.0854 30.4371 11.4626 30.3564 12.084H32.3014C32.2516 11.5409 31.9575 11.0854 31.3479 11.0854Z" fill="white"/>
</svg>
